<?xml version="1.0" encoding="UTF-8" standalone="no" ?>
<!DOCTYPE svg PUBLIC "-//W3C//DTD SVG 1.1//EN" "http://www.w3.org/Graphics/SVG/1.1/DTD/svg11.dtd">
<svg xmlns="http://www.w3.org/2000/svg" xmlns:xlink="http://www.w3.org/1999/xlink" version="1.1" width="200" height="100" viewBox="0 0 200 100" xml:space="preserve">
<desc>Created with Fabric.js 4.6.0</desc>
<defs>
</defs>
<g transform="matrix(1 0 0 1 128.2 46.94)" id="NPzI8lwN5MmLtQDlKSPel"  >
<path style="stroke: none; stroke-width: 1; stroke-dasharray: none; stroke-linecap: butt; stroke-dashoffset: 0; stroke-linejoin: miter; stroke-miterlimit: 4; fill: rgb(255,150,79); fill-rule: nonzero; opacity: 1;" vector-effect="non-scaling-stroke"  transform=" translate(-50.14, -8.05)" d="M 6.21784 15.3713 C 5.05186 15.3713 3.94619 15.2306 2.90083 14.9492 C 1.85548 14.6677 1.00445 14.3059 0.347746 13.8636 L 1.91578 10.8884 C 2.62609 11.344 3.38331 11.6925 4.18743 11.9337 C 4.99155 12.1616 5.79567 12.2755 6.5998 12.2755 C 7.36371 12.2755 7.9534 12.1683 8.36886 11.9538 C 8.79773 11.726 9.01216 11.4177 9.01216 11.0291 C 9.01216 10.694 8.81783 10.4327 8.42917 10.2451 C 8.05392 10.0574 7.46423 9.85641 6.66011 9.64198 C 5.74877 9.40074 4.99155 9.1595 4.38846 8.91827 C 3.78537 8.66363 3.26269 8.28167 2.82042 7.77239 C 2.39156 7.26312 2.17712 6.59301 2.17712 5.76209 C 2.17712 4.75693 2.45187 3.8791 3.00135 3.12859 C 3.55083 2.36467 4.33485 1.77498 5.35341 1.35952 C 6.37196 0.944055 7.56474 0.736323 8.93175 0.736323 C 9.9369 0.736323 10.875 0.84354 11.7462 1.05797 C 12.6173 1.259 13.3678 1.55385 13.9977 1.94251 L 12.5503 4.89766 C 12.0008 4.5492 11.391 4.28786 10.7209 4.11364 C 10.0642 3.92601 9.38742 3.83219 8.69051 3.83219 C 7.89979 3.83219 7.2766 3.95951 6.82093 4.21415 C 6.37866 4.46879 6.15753 4.79714 6.15753 5.1992 C 6.15753 5.54765 6.35186 5.8157 6.74052 6.00332 C 7.12918 6.19095 7.73227 6.39198 8.54979 6.60642 C 9.46113 6.83425 10.2116 7.06879 10.8013 7.31002 C 11.4044 7.55126 11.9204 7.91982 12.3493 8.41569 C 12.7781 8.91157 12.9926 9.56156 12.9926 10.3657 C 12.9926 11.3574 12.7111 12.2353 12.1482 12.9992 C 11.5988 13.7497 10.808 14.3327 9.77608 14.7482 C 8.75752 15.1636 7.57144 15.3713 6.21784 15.3713 Z M 20.0982 4.09353 L 19.6358 6.46569 L 25.8879 6.46569 L 25.3049 9.44095 L 19.0328 9.44095 L 18.5302 12.0141 L 25.908 12.0141 L 25.2647 15.0899 L 13.9869 15.0899 L 16.8013 1.01777 L 27.8178 1.01777 L 27.1946 4.09353 L 20.0982 4.09353 Z M 36.2586 1.01777 C 38.0812 1.01777 39.4884 1.41313 40.4802 2.20385 C 41.4719 2.99457 41.9678 4.10694 41.9678 5.54095 C 41.9678 6.72033 41.6797 7.75229 41.1034 8.63682 C 40.5405 9.52136 39.7297 10.2049 38.6709 10.6873 C 37.6256 11.1698 36.406 11.411 35.0122 11.411 L 32.1977 11.411 L 31.474 15.0899 L 27.4936 15.0899 L 30.3081 1.01777 L 36.2586 1.01777 Z M 35.1931 8.27497 C 36.0776 8.27497 36.7544 8.06724 37.2235 7.65177 C 37.706 7.23631 37.9472 6.64662 37.9472 5.88271 C 37.9472 5.30642 37.7529 4.87755 37.3642 4.59611 C 36.989 4.30127 36.4462 4.15384 35.7359 4.15384 L 33.6452 4.15384 L 32.8209 8.27497 L 35.1931 8.27497 Z M 51.5446 12.3559 L 45.5539 12.3559 L 43.9255 15.0899 L 39.724 15.0899 L 48.7502 1.01777 L 52.6703 1.01777 L 56.0678 15.0899 L 52.1075 15.0899 L 51.5446 12.3559 Z M 50.9415 9.42084 L 49.9966 4.85745 L 47.3028 9.42084 L 50.9415 9.42084 Z M 66.6044 7.49095 L 71.3286 15.0899 L 66.8859 15.0899 L 63.6493 10.0239 L 61.8199 11.6724 L 61.1364 15.0899 L 57.2163 15.0899 L 60.0307 1.01777 L 63.9508 1.01777 L 62.805 6.76724 L 69.1575 1.01777 L 73.8415 1.01777 L 66.6044 7.49095 Z M 78.4442 4.09353 L 77.9818 6.46569 L 84.2339 6.46569 L 83.6509 9.44095 L 77.3787 9.44095 L 76.8761 12.0141 L 84.254 12.0141 L 83.6107 15.0899 L 72.3329 15.0899 L 75.1473 1.01777 L 86.1638 1.01777 L 85.5406 4.09353 L 78.4442 4.09353 Z M 91.0061 4.17395 L 86.6839 4.17395 L 87.3272 1.01777 L 99.9318 1.01777 L 99.2885 4.17395 L 94.9865 4.17395 L 92.7953 15.0899 L 88.8148 15.0899 L 91.0061 4.17395 Z" stroke-linecap="round" />
</g>
<g transform="matrix(1 0 0 1 44.49 46.94)" id="bMPDv6_09--46580-pNqs"  >
<path style="stroke: none; stroke-width: 1; stroke-dasharray: none; stroke-linecap: butt; stroke-dashoffset: 0; stroke-linejoin: miter; stroke-miterlimit: 4; fill: rgb(254,150,79); fill-rule: nonzero; opacity: 1;" vector-effect="non-scaling-stroke"  transform=" translate(-23.56, -26)" d="M 23.5557 52 C 23.0599 52 22.5642 51.8693 22.1229 51.6078 L 1.36736 39.247 C 0.517525 38.7404 0 37.8306 0 36.8446 L 0 26.1182 C 0 24.571 1.25296 23.3181 2.8001 23.3181 C 4.34723 23.3181 5.60019 24.571 5.60019 26.1182 L 5.60019 35.2539 L 23.5611 45.9477 L 41.522 35.2539 L 41.522 20.311 L 24.9938 30.1549 C 24.1113 30.6779 23.0109 30.6779 22.1284 30.1549 L 1.3728 17.7942 C 0.528417 17.293 0.0108923 16.3832 0.00544467 15.4026 C -0.00000299237 14.4221 0.512078 13.5069 1.35102 13.0002 L 22.1066 0.405238 C 22.9891 -0.128632 24.0895 -0.134085 24.9775 0.383443 L 36.8698 7.37824 C 38.2044 8.1627 38.6457 9.87872 37.8612 11.2079 C 37.0768 12.5426 35.3607 12.9839 34.0315 12.1994 L 23.5775 6.04901 L 8.23141 15.3591 L 23.5557 24.4839 L 42.884 12.973 C 43.7501 12.4555 44.8233 12.4446 45.7004 12.9457 C 46.5775 13.4415 47.1168 14.373 47.1168 15.3808 L 47.1168 36.8392 C 47.1168 37.8252 46.5993 38.7404 45.7494 39.2416 L 24.9938 51.6023 C 24.5471 51.8693 24.0514 52 23.5557 52 Z" stroke-linecap="round" />
</g>
</svg>