<?xml version="1.0" encoding="UTF-8" standalone="no" ?>
<!DOCTYPE svg PUBLIC "-//W3C//DTD SVG 1.1//EN" "http://www.w3.org/Graphics/SVG/1.1/DTD/svg11.dtd">
<svg xmlns="http://www.w3.org/2000/svg" xmlns:xlink="http://www.w3.org/1999/xlink" version="1.1" width="100" height="100" viewBox="0 0 100 100" xml:space="preserve">
<desc>Created with Fabric.js 4.6.0</desc>
<defs>
</defs>
<g transform="matrix(1.61 0 0 1.61 50 50)" id="zFiPw_MTML7s124wVXM5S"  >
<path style="stroke: rgb(255,255,255); stroke-opacity: 0; stroke-width: 0; stroke-dasharray: none; stroke-linecap: butt; stroke-dashoffset: 0; stroke-linejoin: miter; stroke-miterlimit: 4; fill: rgb(245,186,65); fill-rule: nonzero; opacity: 1;" vector-effect="non-scaling-stroke"  transform=" translate(-28.92, -28.92)" d="M 0 28.91932 C 0 12.947619999999999 12.94762 0 28.91932 0 C 44.89102 0 57.83864 12.94762 57.83864 28.91932 C 57.83864 44.89102 44.89102 57.83864 28.91932 57.83864 C 12.947619999999999 57.83864 0 44.89102 0 28.91932 z" stroke-linecap="round" />
</g>
<g transform="matrix(0.64 0 0 0.64 50 55.04)" id="LUvy6V5GvfzBIK2nSyljy"  >
<path style="stroke: none; stroke-width: 1; stroke-dasharray: none; stroke-linecap: butt; stroke-dashoffset: 0; stroke-linejoin: miter; stroke-miterlimit: 4; fill: rgb(255,255,255); fill-rule: nonzero; opacity: 1;" vector-effect="non-scaling-stroke"  transform=" translate(-50, -40.58)" d="M 87.043 0 L 50 0 L 12.957 0 L 0 23.557 L 50 81.166 L 100 23.556999999999995 L 87.043 0 z M 83.635 6.345 L 91.22500000000001 20.146 L 77.58500000000001 20.146 L 83.635 6.345 z M 77.168 6.043 L 71.631 18.679 L 57.792 6.043 L 77.168 6.043 z M 64.273 20.146 L 50 20.146 L 35.727 20.146 L 50 7.113 L 64.273 20.146 z M 42.208 6.043 L 28.37 18.679 L 22.832 6.043 L 42.208 6.043 z M 16.365 6.345 L 22.415 20.146 L 8.775 20.146 L 16.365 6.345 z M 10.288 26.189 L 25.064 26.189 L 40.141999999999996 60.588 L 10.288 26.189 z M 31.663 26.189 L 50 26.189 L 68.338 26.189 L 50 68.022 L 31.663 26.189 z M 59.857 60.589 L 74.935 26.189999999999998 L 89.712 26.189999999999998 L 59.857 60.589 z" stroke-linecap="round" />
</g>
</svg>