<svg xmlns="http://www.w3.org/2000/svg" width="400" height="85" viewBox="0 0 400 85" fill="none"><link xmlns="" type="text/css" rel="stylesheet" id="dark-mode-custom-link"/><link xmlns="" type="text/css" rel="stylesheet" id="dark-mode-general-link"/><style xmlns="" lang="en" type="text/css" id="dark-mode-custom-style"/><style xmlns="" lang="en" type="text/css" id="dark-mode-native-style"/><style xmlns="" lang="en" type="text/css" id="dark-mode-native-sheet"/>
<path d="M108.93 48.4502V19.8902H118.672C122.015 19.8902 124.76 20.4886 126.907 21.6854C129.081 22.855 130.684 24.5142 131.717 26.663C132.777 28.7846 133.307 31.287 133.307 34.1702C133.307 37.0534 132.777 39.5694 131.717 41.7182C130.684 43.8398 129.081 45.499 126.907 46.6958C124.76 47.8654 122.015 48.4502 118.672 48.4502H108.93ZM114.148 43.9622H118.428C120.819 43.9622 122.708 43.5814 124.094 42.8198C125.48 42.031 126.472 40.9158 127.07 39.4742C127.668 38.0054 127.967 36.2374 127.967 34.1702C127.967 32.1302 127.668 30.3758 127.07 28.907C126.472 27.4382 125.48 26.3094 124.094 25.5206C122.708 24.7318 120.819 24.3374 118.428 24.3374H114.148V43.9622ZM140.601 25.0718C139.65 25.0718 138.862 24.7862 138.237 24.215C137.639 23.6438 137.34 22.923 137.34 22.0526C137.34 21.1822 137.639 20.475 138.237 19.931C138.862 19.3598 139.65 19.0742 140.601 19.0742C141.552 19.0742 142.327 19.3598 142.925 19.931C143.55 20.475 143.862 21.1822 143.862 22.0526C143.862 22.923 143.55 23.6438 142.925 24.215C142.327 24.7862 141.552 25.0718 140.601 25.0718ZM137.992 48.4502V28.2134H143.21V48.4502H137.992ZM148.656 48.4502V19.0742H153.874V36.4142L161.049 28.2134H167.245L158.97 37.4342L168.59 48.4502H162.068L153.874 38.291V48.4502H148.656ZM174.638 25.0718C173.686 25.0718 172.898 24.7862 172.273 24.215C171.675 23.6438 171.376 22.923 171.376 22.0526C171.376 21.1822 171.675 20.475 172.273 19.931C172.898 19.3598 173.686 19.0742 174.638 19.0742C175.589 19.0742 176.363 19.3598 176.961 19.931C177.586 20.475 177.899 21.1822 177.899 22.0526C177.899 22.923 177.586 23.6438 176.961 24.215C176.363 24.7862 175.589 25.0718 174.638 25.0718ZM172.029 48.4502V28.2134H177.246V48.4502H172.029ZM191.702 48.4502C189.582 48.4502 187.883 47.9334 186.606 46.8998C185.329 45.8662 184.69 44.0302 184.69 41.3918V32.579H181.225V28.2134H184.69L185.302 22.787H189.908V28.2134H195.37V32.579H189.908V41.4326C189.908 42.4118 190.112 43.0918 190.519 43.4726C190.954 43.8262 191.688 44.003 192.721 44.003H195.248V48.4502H191.702ZM206.821 48.9398C205.082 48.9398 203.655 48.6678 202.541 48.1238C201.426 47.5526 200.598 46.8046 200.054 45.8798C199.511 44.955 199.239 43.935 199.239 42.8198C199.239 40.943 199.973 39.4198 201.44 38.2502C202.908 37.0806 205.109 36.4958 208.044 36.4958H213.18V36.0062C213.18 34.619 212.786 33.599 211.998 32.9462C211.21 32.2934 210.232 31.967 209.063 31.967C208.003 31.967 207.079 32.2254 206.291 32.7422C205.503 33.2318 205.014 33.9662 204.824 34.9454H199.728C199.864 33.4766 200.353 32.1982 201.196 31.1102C202.065 30.0222 203.179 29.1926 204.538 28.6214C205.897 28.023 207.419 27.7238 209.104 27.7238C211.984 27.7238 214.254 28.4446 215.911 29.8862C217.569 31.3278 218.398 33.3678 218.398 36.0062V48.4502H213.955L213.466 45.1862C212.868 46.2742 212.025 47.1718 210.938 47.879C209.878 48.5862 208.506 48.9398 206.821 48.9398ZM208.003 44.8598C209.498 44.8598 210.653 44.3702 211.468 43.391C212.311 42.4118 212.841 41.2014 213.058 39.7598H208.615C207.229 39.7598 206.237 40.0182 205.639 40.535C205.041 41.0246 204.742 41.6366 204.742 42.371C204.742 43.1598 205.041 43.7718 205.639 44.207C206.237 44.6422 207.025 44.8598 208.003 44.8598ZM233.213 48.4502V19.8902H238.431V48.4502H233.213ZM243.839 48.4502V28.2134H248.446L248.853 31.6406C249.478 30.4438 250.375 29.4918 251.544 28.7846C252.739 28.0774 254.139 27.7238 255.742 27.7238C258.243 27.7238 260.186 28.5126 261.572 30.0902C262.958 31.6678 263.651 33.9798 263.651 37.0262V48.4502H258.433V37.5158C258.433 35.775 258.08 34.4422 257.373 33.5174C256.666 32.5926 255.566 32.1302 254.071 32.1302C252.604 32.1302 251.394 32.647 250.443 33.6806C249.519 34.7142 249.057 36.1558 249.057 38.0054V48.4502H243.839ZM277.649 48.4502C275.529 48.4502 273.831 47.9334 272.553 46.8998C271.276 45.8662 270.638 44.0302 270.638 41.3918V32.579H267.173V28.2134H270.638L271.249 22.787H275.855V28.2134H281.318V32.579H275.855V41.4326C275.855 42.4118 276.059 43.0918 276.467 43.4726C276.902 43.8262 277.635 44.003 278.668 44.003H281.195V48.4502H277.649ZM295.105 48.9398C293.066 48.9398 291.259 48.5046 289.683 47.6342C288.107 46.7638 286.87 45.5398 285.973 43.9622C285.077 42.3846 284.628 40.5622 284.628 38.495C284.628 36.4006 285.063 34.5374 285.933 32.9054C286.829 31.2734 288.052 30.0086 289.601 29.111C291.178 28.1862 293.026 27.7238 295.145 27.7238C297.129 27.7238 298.882 28.159 300.404 29.0294C301.926 29.8998 303.108 31.0966 303.951 32.6198C304.82 34.1158 305.255 35.7886 305.255 37.6382C305.255 37.9374 305.241 38.2502 305.214 38.5766C305.214 38.903 305.201 39.243 305.173 39.5966H289.805C289.914 41.1742 290.458 42.4118 291.436 43.3094C292.441 44.207 293.651 44.6558 295.064 44.6558C296.124 44.6558 297.007 44.4246 297.714 43.9622C298.447 43.4726 298.991 42.847 299.344 42.0854H304.643C304.263 43.3638 303.624 44.5334 302.728 45.5942C301.858 46.6278 300.771 47.4438 299.466 48.0422C298.189 48.6406 296.735 48.9398 295.105 48.9398ZM295.145 31.967C293.868 31.967 292.74 32.3342 291.762 33.0686C290.784 33.7758 290.159 34.8638 289.887 36.3326H299.956C299.874 34.9998 299.385 33.939 298.488 33.1502C297.591 32.3614 296.477 31.967 295.145 31.967ZM317.766 42.4118C316.788 42.4118 315.877 42.303 315.035 42.0854L313.527 43.595C313.989 43.8398 314.614 44.0438 315.402 44.207C316.19 44.3702 317.467 44.5334 319.234 44.6966C321.924 44.9414 323.881 45.5806 325.104 46.6142C326.327 47.6478 326.938 49.0758 326.938 50.8982C326.938 52.095 326.612 53.2238 325.96 54.2846C325.308 55.3726 324.302 56.243 322.943 56.8958C321.584 57.5758 319.845 57.9158 317.725 57.9158C314.845 57.9158 312.521 57.3718 310.755 56.2838C308.988 55.223 308.105 53.6182 308.105 51.4694C308.105 49.647 308.988 48.0694 310.755 46.7366C310.211 46.4918 309.736 46.2334 309.328 45.9614C308.948 45.6894 308.608 45.4038 308.309 45.1046V44.1662L311.855 40.4126C310.279 39.0254 309.491 37.2438 309.491 35.0678C309.491 33.7078 309.817 32.4702 310.469 31.355C311.149 30.2398 312.1 29.3558 313.323 28.703C314.546 28.0502 316.027 27.7238 317.766 27.7238C318.908 27.7238 319.967 27.887 320.946 28.2134H328.61V31.3958L325.145 31.6406C325.688 32.6742 325.96 33.8166 325.96 35.0678C325.96 36.4278 325.634 37.6654 324.982 38.7806C324.329 39.8958 323.378 40.7798 322.128 41.4326C320.905 42.0854 319.451 42.4118 317.766 42.4118ZM317.766 38.4134C318.826 38.4134 319.696 38.1278 320.375 37.5566C321.082 36.9854 321.435 36.1694 321.435 35.1086C321.435 34.0478 321.082 33.2318 320.375 32.6606C319.696 32.0894 318.826 31.8038 317.766 31.8038C316.652 31.8038 315.755 32.0894 315.076 32.6606C314.396 33.2318 314.057 34.0478 314.057 35.1086C314.057 36.1694 314.396 36.9854 315.076 37.5566C315.755 38.1278 316.652 38.4134 317.766 38.4134ZM312.874 50.939C312.874 51.9454 313.336 52.6934 314.26 53.183C315.212 53.6998 316.367 53.9582 317.725 53.9582C319.03 53.9582 320.09 53.6862 320.905 53.1422C321.72 52.6254 322.128 51.9182 322.128 51.0206C322.128 50.2862 321.856 49.6742 321.313 49.1846C320.796 48.695 319.75 48.3958 318.174 48.287C317.06 48.2054 316.027 48.083 315.076 47.9198C314.288 48.355 313.717 48.831 313.364 49.3478C313.038 49.8646 312.874 50.395 312.874 50.939ZM332.414 48.4502V28.2134H337.061L337.55 32.0078C338.284 30.7022 339.276 29.6686 340.526 28.907C341.804 28.1182 343.298 27.7238 345.01 27.7238V33.2318H343.543C342.401 33.2318 341.382 33.4086 340.486 33.7622C339.589 34.1158 338.882 34.7278 338.366 35.5982C337.877 36.4686 337.632 37.679 337.632 39.2294V48.4502H332.414ZM355.547 48.9398C353.808 48.9398 352.381 48.6678 351.267 48.1238C350.153 47.5526 349.324 46.8046 348.78 45.8798C348.237 44.955 347.965 43.935 347.965 42.8198C347.965 40.943 348.699 39.4198 350.166 38.2502C351.634 37.0806 353.835 36.4958 356.77 36.4958H361.906V36.0062C361.906 34.619 361.512 33.599 360.724 32.9462C359.936 32.2934 358.958 31.967 357.789 31.967C356.729 31.967 355.805 32.2254 355.017 32.7422C354.229 33.2318 353.74 33.9662 353.55 34.9454H348.454C348.59 33.4766 349.079 32.1982 349.922 31.1102C350.791 30.0222 351.905 29.1926 353.264 28.6214C354.623 28.023 356.145 27.7238 357.83 27.7238C360.711 27.7238 362.98 28.4446 364.638 29.8862C366.295 31.3278 367.124 33.3678 367.124 36.0062V48.4502H362.681L362.192 45.1862C361.594 46.2742 360.751 47.1718 359.664 47.879C358.604 48.5862 357.232 48.9398 355.547 48.9398ZM356.729 44.8598C358.224 44.8598 359.379 44.3702 360.194 43.391C361.037 42.4118 361.567 41.2014 361.784 39.7598H357.341C355.955 39.7598 354.963 40.0182 354.365 40.535C353.767 41.0246 353.468 41.6366 353.468 42.371C353.468 43.1598 353.767 43.7718 354.365 44.207C354.963 44.6422 355.751 44.8598 356.729 44.8598ZM380.46 48.9398C378.666 48.9398 377.09 48.6542 375.731 48.083C374.373 47.4846 373.286 46.6686 372.47 45.635C371.655 44.6014 371.166 43.4046 371.003 42.0446H376.261C376.424 42.8334 376.859 43.5134 377.566 44.0846C378.3 44.6286 379.237 44.9006 380.379 44.9006C381.52 44.9006 382.349 44.6694 382.865 44.207C383.409 43.7446 383.68 43.2142 383.68 42.6158C383.68 41.7454 383.3 41.1606 382.539 40.8614C381.778 40.535 380.718 40.2222 379.359 39.923C378.49 39.7326 377.607 39.5014 376.71 39.2294C375.813 38.9574 374.984 38.6174 374.223 38.2094C373.489 37.7742 372.891 37.2302 372.429 36.5774C371.967 35.8974 371.736 35.0678 371.736 34.0886C371.736 32.2934 372.443 30.7838 373.856 29.5598C375.297 28.3358 377.308 27.7238 379.889 27.7238C382.281 27.7238 384.183 28.2814 385.596 29.3966C387.037 30.5118 387.893 32.0486 388.164 34.007H383.232C382.933 32.511 381.805 31.763 379.849 31.763C378.87 31.763 378.109 31.9534 377.566 32.3342C377.049 32.715 376.791 33.191 376.791 33.7622C376.791 34.3606 377.185 34.8366 377.973 35.1902C378.762 35.5438 379.808 35.8702 381.112 36.1694C382.525 36.4958 383.816 36.863 384.985 37.271C386.181 37.6518 387.132 38.2366 387.838 39.0254C388.545 39.787 388.898 40.8886 388.898 42.3302C388.925 43.5814 388.599 44.7102 387.92 45.7166C387.241 46.723 386.262 47.5118 384.985 48.083C383.708 48.6542 382.199 48.9398 380.46 48.9398ZM396.334 25.0718C395.382 25.0718 394.594 24.7862 393.969 24.215C393.371 23.6438 393.072 22.923 393.072 22.0526C393.072 21.1822 393.371 20.475 393.969 19.931C394.594 19.3598 395.382 19.0742 396.334 19.0742C397.285 19.0742 398.059 19.3598 398.657 19.931C399.282 20.475 399.595 21.1822 399.595 22.0526C399.595 22.923 399.282 23.6438 398.657 24.215C398.059 24.7862 397.285 25.0718 396.334 25.0718ZM393.725 48.4502V28.2134H398.942V48.4502H393.725Z" fill="#2F4459"/>
<path d="M107.035 73.1002V64.7702H108.034V73.1002H107.035ZM109.739 73.1002V67.1978H110.643L110.702 68.2569C110.892 67.884 111.166 67.5905 111.523 67.3763C111.879 67.1621 112.284 67.055 112.735 67.055C113.433 67.055 113.988 67.2692 114.4 67.6976C114.82 68.1181 115.03 68.7686 115.03 69.6492V73.1002H114.031V69.7563C114.031 68.5266 113.524 67.9118 112.509 67.9118C112.002 67.9118 111.578 68.0982 111.237 68.4711C110.904 68.836 110.738 69.3596 110.738 70.0419V73.1002H109.739ZM119.219 73.243C118.632 73.243 118.116 73.1081 117.673 72.8384C117.236 72.5687 116.896 72.1998 116.65 71.7317C116.413 71.2636 116.294 70.7321 116.294 70.1371C116.294 69.5421 116.416 69.0145 116.662 68.5544C116.908 68.0863 117.248 67.7214 117.685 67.4596C118.121 67.1899 118.636 67.055 119.23 67.055C119.714 67.055 120.142 67.1542 120.515 67.3525C120.887 67.5508 121.176 67.8285 121.382 68.1855V64.5322H122.381V73.1002H121.478L121.382 72.1244C121.192 72.41 120.919 72.6678 120.562 72.8979C120.205 73.128 119.757 73.243 119.219 73.243ZM119.326 72.3743C119.721 72.3743 120.07 72.2831 120.372 72.1006C120.681 71.9102 120.919 71.6484 121.085 71.3152C121.259 70.982 121.347 70.5933 121.347 70.149C121.347 69.7047 121.259 69.316 121.085 68.9828C120.919 68.6496 120.681 68.3918 120.372 68.2093C120.07 68.0189 119.721 67.9237 119.326 67.9237C118.937 67.9237 118.588 68.0189 118.279 68.2093C117.978 68.3918 117.74 68.6496 117.566 68.9828C117.399 69.316 117.316 69.7047 117.316 70.149C117.316 70.5933 117.399 70.982 117.566 71.3152C117.74 71.6484 117.978 71.9102 118.279 72.1006C118.588 72.2831 118.937 72.3743 119.326 72.3743ZM126.696 73.243C126.141 73.243 125.642 73.1161 125.198 72.8622C124.754 72.6083 124.402 72.2513 124.14 71.7912C123.886 71.3231 123.76 70.7757 123.76 70.149C123.76 69.5223 123.89 68.9788 124.152 68.5187C124.413 68.0506 124.766 67.6897 125.21 67.4358C125.662 67.1819 126.165 67.055 126.72 67.055C127.275 67.055 127.774 67.1819 128.218 67.4358C128.661 67.6897 129.011 68.0506 129.264 68.5187C129.526 68.9788 129.657 69.5223 129.657 70.149C129.657 70.7757 129.526 71.3231 129.264 71.7912C129.003 72.2513 128.646 72.6083 128.194 72.8622C127.75 73.1161 127.251 73.243 126.696 73.243ZM126.696 72.3862C127.037 72.3862 127.354 72.3029 127.647 72.1363C127.94 71.9697 128.178 71.7198 128.361 71.3866C128.543 71.0534 128.634 70.6409 128.634 70.149C128.634 69.6571 128.543 69.2446 128.361 68.9114C128.186 68.5782 127.952 68.3283 127.659 68.1617C127.366 67.9951 127.053 67.9118 126.72 67.9118C126.379 67.9118 126.062 67.9951 125.769 68.1617C125.475 68.3283 125.237 68.5782 125.056 68.9114C124.873 69.2446 124.782 69.6571 124.782 70.149C124.782 70.6409 124.873 71.0534 125.056 71.3866C125.237 71.7198 125.472 71.9697 125.757 72.1363C126.05 72.3029 126.363 72.3862 126.696 72.3862ZM131.045 73.1002V67.1978H131.949L132.008 68.2569C132.199 67.884 132.472 67.5905 132.829 67.3763C133.185 67.1621 133.59 67.055 134.042 67.055C134.739 67.055 135.293 67.2692 135.706 67.6976C136.126 68.1181 136.336 68.7686 136.336 69.6492V73.1002H135.337V69.7563C135.337 68.5266 134.83 67.9118 133.816 67.9118C133.308 67.9118 132.884 68.0982 132.543 68.4711C132.211 68.836 132.044 69.3596 132.044 70.0419V73.1002H131.045ZM140.501 73.243C139.938 73.243 139.439 73.1161 139.003 72.8622C138.566 72.6004 138.222 72.2394 137.968 71.7793C137.722 71.3192 137.6 70.7757 137.6 70.149C137.6 69.5302 137.722 68.9907 137.968 68.5306C138.214 68.0625 138.554 67.7016 138.991 67.4477C139.434 67.1859 139.946 67.055 140.525 67.055C141.095 67.055 141.586 67.1859 141.999 67.4477C142.419 67.7016 142.74 68.0387 142.962 68.4592C143.184 68.8797 143.295 69.3319 143.295 69.8158C143.295 69.9031 143.291 69.9903 143.283 70.0776C143.283 70.1649 143.283 70.264 143.283 70.3751H138.587C138.611 70.8273 138.713 71.2041 138.896 71.5056C139.086 71.7991 139.32 72.0213 139.597 72.172C139.883 72.3227 140.183 72.3981 140.501 72.3981C140.913 72.3981 141.258 72.3029 141.535 72.1125C141.812 71.9221 142.014 71.6643 142.142 71.339H143.129C142.97 71.8864 142.665 72.3426 142.213 72.7075C141.769 73.0645 141.198 73.243 140.501 73.243ZM140.501 67.8999C140.025 67.8999 139.601 68.0467 139.229 68.3402C138.864 68.6258 138.654 69.0463 138.599 69.6016H142.308C142.284 69.0701 142.102 68.6536 141.761 68.3521C141.42 68.0506 141 67.8999 140.501 67.8999ZM146.877 73.243C146.172 73.243 145.585 73.0645 145.118 72.7075C144.65 72.3505 144.377 71.8666 144.297 71.2557H145.32C145.383 71.5651 145.546 71.8348 145.807 72.0649C146.077 72.287 146.437 72.3981 146.889 72.3981C147.309 72.3981 147.619 72.3108 147.816 72.1363C148.015 71.9538 148.114 71.7396 148.114 71.4937C148.114 71.1367 147.983 70.8987 147.721 70.7797C147.468 70.6607 147.107 70.5536 146.639 70.4584C146.323 70.3949 146.006 70.3037 145.688 70.1847C145.371 70.0657 145.106 69.8991 144.892 69.6849C144.678 69.4628 144.571 69.1732 144.571 68.8162C144.571 68.3005 144.761 67.8801 145.141 67.5548C145.53 67.2216 146.053 67.055 146.711 67.055C147.337 67.055 147.849 67.2137 148.244 67.531C148.649 67.8404 148.883 68.2847 148.946 68.8638H147.959C147.92 68.5623 147.789 68.3283 147.567 68.1617C147.353 67.9872 147.064 67.8999 146.699 67.8999C146.342 67.8999 146.065 67.9753 145.867 68.126C145.676 68.2767 145.581 68.4751 145.581 68.721C145.581 68.959 145.704 69.1454 145.95 69.2803C146.204 69.4152 146.544 69.5302 146.972 69.6254C147.337 69.7047 147.682 69.8039 148.007 69.9229C148.34 70.034 148.61 70.2045 148.815 70.4346C149.029 70.6567 149.136 70.982 149.136 71.4104C149.145 71.9419 148.943 72.3822 148.53 72.7313C148.126 73.0724 147.575 73.243 146.877 73.243ZM151.169 65.8888C150.971 65.8888 150.805 65.8253 150.67 65.6984C150.543 65.5635 150.48 65.3969 150.48 65.1986C150.48 65.0082 150.543 64.8495 150.67 64.7226C150.805 64.5957 150.971 64.5322 151.169 64.5322C151.36 64.5322 151.523 64.5957 151.657 64.7226C151.792 64.8495 151.859 65.0082 151.859 65.1986C151.859 65.3969 151.792 65.5635 151.657 65.6984C151.523 65.8253 151.36 65.8888 151.169 65.8888ZM150.67 73.1002V67.1978H151.669V73.1002H150.67ZM155.37 73.243C154.878 73.243 154.47 73.1597 154.145 72.9931C153.82 72.8265 153.578 72.6044 153.42 72.3267C153.261 72.049 153.182 71.7476 153.182 71.4223C153.182 70.8194 153.411 70.3553 153.872 70.03C154.331 69.7047 154.957 69.5421 155.75 69.5421H157.343V69.4707C157.343 68.955 157.208 68.5663 156.939 68.3045C156.669 68.0348 156.309 67.8999 155.857 67.8999C155.468 67.8999 155.132 67.9991 154.847 68.1974C154.569 68.3878 154.395 68.6694 154.323 69.0423H153.301C153.34 68.6139 153.483 68.2529 153.729 67.9594C153.982 67.6659 154.295 67.4437 154.668 67.293C155.04 67.1343 155.437 67.055 155.857 67.055C156.681 67.055 157.299 67.2771 157.712 67.7214C158.132 68.1577 158.342 68.7408 158.342 69.4707V73.1002H157.45L157.391 72.0411C157.225 72.3743 156.978 72.6599 156.654 72.8979C156.336 73.128 155.908 73.243 155.37 73.243ZM155.524 72.3981C155.905 72.3981 156.229 72.2989 156.499 72.1006C156.776 71.9023 156.987 71.6444 157.129 71.3271C157.272 71.0098 157.343 70.6766 157.343 70.3275V70.3156H155.833C155.247 70.3156 154.83 70.4187 154.585 70.625C154.347 70.8233 154.228 71.0732 154.228 71.3747C154.228 71.6841 154.339 71.934 154.561 72.1244C154.791 72.3069 155.112 72.3981 155.524 72.3981Z" fill="#2F4459"/>
<path fill-rule="evenodd" clip-rule="evenodd" d="M38.5461 27.0355C40.0818 27.5311 40.9232 29.1832 40.4254 30.7254C38.8943 35.4682 36.0267 39.5953 31.1072 42.2772C29.687 43.0514 27.9133 42.5254 27.1454 41.1023C26.3775 39.6793 26.9062 37.8981 28.3263 37.124C31.706 35.2815 33.7136 32.4941 34.8638 28.9306C35.3618 27.3884 37.0103 26.5398 38.5461 27.0355Z" fill="#1A6EC1"/>
<path fill-rule="evenodd" clip-rule="evenodd" d="M27.6255 60.7214C28.732 59.5365 30.5835 59.4738 31.7611 60.5814C35.6329 64.2233 40.8001 66.1703 48.9613 67.0492C50.5675 67.2221 51.7264 68.6698 51.55 70.2826C51.3736 71.8953 49.9286 73.0625 48.3224 72.8895C39.5431 71.9441 32.9315 69.7421 27.7544 64.8725C26.5768 63.7648 26.5191 61.9063 27.6255 60.7214Z" fill="#1A6EC1"/>
<path fill-rule="evenodd" clip-rule="evenodd" d="M60.0017 24.7067C60.9715 23.411 62.8017 23.1475 64.0894 24.1184C67.9671 27.0418 70.635 31.9486 72.0812 37.1995C73.5418 42.5026 73.8654 48.5315 72.7102 54.0708C72.3795 55.6564 70.8323 56.6758 69.2545 56.3478C67.6767 56.0198 66.6656 54.4685 66.9963 52.8829C67.9442 48.3379 67.6889 43.259 66.4542 38.7762C65.2052 34.2413 63.0615 30.684 60.577 28.8109C59.2893 27.84 59.0317 26.0026 60.0017 24.7067Z" fill="#1A6EC1"/>
<path fill-rule="evenodd" clip-rule="evenodd" d="M47.783 9.23548C44.4629 9.19527 41.7319 11.8633 41.6833 15.1948C41.6347 18.5263 44.2868 21.2596 47.607 21.2999C50.9271 21.3401 53.658 18.672 53.7067 15.3405C53.7553 12.009 51.1031 9.27568 47.783 9.23548ZM37.298 15.1417C37.3821 9.38006 42.1051 4.76568 47.8472 4.83525C53.5893 4.90482 58.176 9.632 58.0919 15.3936C58.0078 21.1553 53.2848 25.7696 47.5428 25.7001C41.8007 25.6304 37.214 20.9033 37.298 15.1417Z" fill="#FFA51E"/>
<path fill-rule="evenodd" clip-rule="evenodd" d="M17.986 46.1202C14.6659 46.08 11.935 48.7481 11.8864 52.0796C11.8378 55.4111 14.4899 58.1444 17.81 58.1846C21.1302 58.2248 23.8611 55.5567 23.9097 52.2253C23.9583 48.8938 21.3062 46.1604 17.986 46.1202ZM7.50114 52.0264C7.5852 46.2648 12.3081 41.6504 18.0502 41.72C23.7923 41.7895 28.379 46.5167 28.295 52.2784C28.2109 58.04 23.4879 62.6543 17.7458 62.5848C12.0038 62.5152 7.41708 57.7881 7.50114 52.0264Z" fill="#00D16E"/>
<path fill-rule="evenodd" clip-rule="evenodd" d="M65.4001 64.2955C62.08 64.2553 59.3491 66.9234 59.3004 70.2549C59.2518 73.5863 61.904 76.3196 65.2242 76.3599C68.5443 76.4001 71.2752 73.732 71.3238 70.4005C71.3724 67.0691 68.7203 64.3357 65.4001 64.2955ZM54.9152 70.2017C54.9993 64.4401 59.7223 59.8257 65.4643 59.8953C71.2064 59.9648 75.7931 64.692 75.7091 70.4537C75.625 76.2153 70.902 80.8296 65.16 80.7601C59.4179 80.6905 54.8311 75.9634 54.9152 70.2017Z" fill="#E8234F"/>
</svg>